<svg width="331" height="278" viewBox="0 0 331 278" fill="none" xmlns="http://www.w3.org/2000/svg">
<mask id="mask0_2_2" style="mask-type:luminance" maskUnits="userSpaceOnUse" x="0" y="97" width="51" height="51">
<path d="M4.4343e-06 105.282L7.87344 147.817L50.4086 139.944L42.5351 97.4088L4.4343e-06 105.282Z" fill="white"/>
</mask>
<g mask="url(#mask0_2_2)">
<g opacity="0.1">
<path d="M32.5554 100.685C32.0184 101.468 31.7604 102.409 31.8224 103.356C31.8834 104.303 32.2625 105.202 32.8975 105.908L28.7584 111.919C26.8264 111.397 24.7804 111.486 22.9014 112.173C21.0224 112.861 19.4024 114.113 18.2644 115.759C17.8614 116.379 17.2324 116.818 16.5114 116.984C13.7744 117.563 11.2674 118.931 9.30044 120.921C7.33344 122.91 5.99344 125.432 5.44544 128.176C4.89844 130.919 5.16644 133.763 6.21844 136.355C7.27044 138.947 9.06044 141.174 11.3644 142.759C13.6694 144.345 16.3884 145.22 19.1854 145.275C21.9824 145.331 24.7344 144.566 27.1004 143.073C29.4664 141.581 31.3434 139.427 32.4984 136.879C33.6524 134.331 34.0344 131.5 33.5964 128.737C33.4984 127.996 33.6924 127.245 34.1374 126.644C35.5774 124.529 36.1215 121.929 35.6515 119.414C35.3885 117.995 34.8074 116.655 33.9494 115.495L38.0814 109.478C38.6494 109.705 39.2614 109.806 39.8724 109.773C40.4844 109.74 41.0814 109.575 41.6224 109.288C42.1634 109.001 42.6364 108.601 43.0074 108.113C43.3784 107.626 43.6384 107.064 43.7704 106.466C43.9024 105.868 43.9035 105.249 43.7725 104.65C43.6415 104.052 43.3814 103.49 43.0114 103.002C42.6414 102.514 42.1695 102.112 41.6295 101.825C41.0885 101.537 40.4914 101.371 39.8804 101.337C39.5724 100.654 39.0885 100.066 38.4785 99.6324C37.8685 99.1984 37.1544 98.9354 36.4084 98.8684C35.6624 98.8024 34.9134 98.9354 34.2354 99.2554C33.5584 99.5744 32.9794 100.068 32.5554 100.685ZM30.1314 115.514C30.3634 115.679 30.5864 115.856 30.8004 116.043C30.9674 116.188 31.1264 116.343 31.2774 116.505C32.3444 117.662 32.9874 119.147 33.1014 120.717C33.2144 122.287 32.7915 123.849 31.9015 125.147C31.0715 126.32 30.7264 127.767 30.9374 129.188C31.4104 132.146 30.7195 135.173 29.0095 137.633C27.2995 140.092 24.7044 141.795 21.7664 142.383C18.8294 142.971 15.7784 142.399 13.2534 140.788C10.7284 139.176 8.92544 136.649 8.22244 133.737L8.10644 133.105C7.54744 130.13 8.17444 127.055 9.85244 124.536C11.5314 122.017 14.1294 120.255 17.0904 119.626C18.4874 119.32 19.7124 118.485 20.5084 117.296C21.4054 116.003 22.7134 115.053 24.2194 114.599C25.7264 114.146 27.3414 114.216 28.8034 114.798C29.2694 114.99 29.7144 115.23 30.1314 115.514ZM36.9044 101.826C37.0844 101.947 37.2364 102.106 37.3474 102.292C37.4594 102.478 37.5285 102.686 37.5514 102.902C37.5754 103.092 37.6394 103.274 37.7384 103.438C37.8374 103.602 37.9695 103.744 38.1255 103.854C38.2845 103.963 38.4634 104.036 38.6524 104.07C38.8414 104.104 39.0345 104.097 39.2205 104.05C39.4305 103.997 39.6495 103.989 39.8625 104.027C40.0755 104.064 40.2785 104.147 40.4575 104.268C40.7825 104.503 41.0055 104.855 41.0785 105.25C41.1515 105.644 41.0695 106.052 40.8495 106.388C40.6205 106.721 40.2684 106.949 39.8704 107.022C39.4734 107.096 39.0624 107.009 38.7294 106.781L38.5774 106.665C38.4344 106.537 38.2664 106.442 38.0844 106.384C37.9014 106.327 37.7084 106.309 37.5194 106.331C37.3294 106.356 37.1464 106.42 36.9824 106.519C36.8184 106.618 36.6774 106.75 36.5664 106.906L32.0175 113.522L31.6594 113.259L31.2854 113.019L35.8344 106.402C35.9424 106.244 36.0164 106.065 36.0504 105.876C36.0844 105.687 36.0775 105.494 36.0305 105.308C35.9834 105.122 35.8974 104.949 35.7784 104.799C35.6594 104.649 35.5104 104.526 35.3404 104.439L35.1775 104.338C34.9985 104.231 34.8434 104.088 34.7214 103.919C34.6004 103.749 34.5145 103.557 34.4705 103.353C34.4265 103.149 34.4244 102.938 34.4644 102.734C34.5044 102.529 34.5864 102.335 34.7044 102.163C34.8224 101.991 34.9745 101.845 35.1515 101.734C35.3285 101.624 35.5254 101.55 35.7314 101.518C35.9374 101.487 36.1484 101.498 36.3504 101.551C36.5514 101.603 36.7404 101.697 36.9044 101.826Z" fill="#eee"/>
</g>
</g>
<mask id="mask1_2_2" style="mask-type:luminance" maskUnits="userSpaceOnUse" x="229" y="220" width="58" height="59">
<path d="M268.368 278L286.988 238.955L247.944 220.335L229.323 259.379L268.368 278Z" fill="white"/>
</mask>
<g mask="url(#mask1_2_2)">
<g opacity="0.1">
<path d="M239.323 262.59C240.217 262.273 240.979 261.664 241.486 260.861C241.992 260.058 242.214 259.108 242.115 258.164L248.996 255.732C250.252 257.289 251.96 258.419 253.884 258.967C255.809 259.515 257.856 259.453 259.744 258.79C260.434 258.526 261.201 258.539 261.882 258.829C264.436 259.969 267.269 260.334 270.03 259.88C272.79 259.426 275.357 258.173 277.412 256.275C279.467 254.377 280.921 251.918 281.592 249.202C282.264 246.486 282.125 243.633 281.191 240.996C280.258 238.359 278.572 236.053 276.341 234.365C274.111 232.676 271.434 231.679 268.642 231.496C265.851 231.314 263.067 231.954 260.636 233.337C258.204 234.721 256.232 236.787 254.963 239.28C254.606 239.937 254.009 240.431 253.295 240.656C250.887 241.522 248.92 243.305 247.822 245.617C247.201 246.919 246.884 248.345 246.896 249.788L240.018 252.229C239.691 251.711 239.256 251.271 238.742 250.938C238.228 250.605 237.647 250.388 237.041 250.302C236.435 250.216 235.817 250.263 235.23 250.439C234.644 250.615 234.103 250.917 233.645 251.323C233.186 251.73 232.822 252.231 232.576 252.792C232.331 253.353 232.21 253.96 232.223 254.573C232.236 255.185 232.382 255.787 232.65 256.337C232.919 256.888 233.304 257.373 233.779 257.76C233.627 258.493 233.672 259.253 233.911 259.963C234.15 260.672 234.573 261.305 235.138 261.797C235.702 262.289 236.387 262.621 237.123 262.761C237.858 262.9 238.618 262.841 239.323 262.59ZM249.997 252.016C249.907 251.746 249.83 251.472 249.767 251.195C249.717 250.979 249.679 250.761 249.652 250.541C249.468 248.977 249.82 247.398 250.651 246.061C251.482 244.724 252.742 243.709 254.225 243.181C255.585 242.719 256.715 241.751 257.38 240.477C258.735 237.806 261.072 235.763 263.901 234.777C266.73 233.791 269.831 233.939 272.553 235.189C275.275 236.439 277.408 238.694 278.504 241.482C279.6 244.27 279.575 247.374 278.432 250.143L278.156 250.723C276.86 253.458 274.546 255.579 271.707 256.63C268.869 257.682 265.732 257.582 262.966 256.351C261.655 255.777 260.174 255.733 258.831 256.229C257.346 256.747 255.729 256.748 254.244 256.23C252.758 255.711 251.492 254.706 250.651 253.376C250.387 252.946 250.168 252.49 249.997 252.016ZM236.474 259.112C236.399 258.909 236.37 258.691 236.389 258.475C236.408 258.259 236.474 258.049 236.583 257.862C236.675 257.694 236.73 257.508 236.746 257.317C236.763 257.127 236.739 256.935 236.677 256.753C236.613 256.573 236.511 256.408 236.378 256.27C236.246 256.131 236.085 256.023 235.907 255.952C235.706 255.871 235.524 255.749 235.374 255.593C235.224 255.438 235.108 255.252 235.034 255.049C234.909 254.667 234.936 254.252 235.109 253.89C235.281 253.527 235.587 253.245 235.962 253.103C236.344 252.968 236.762 252.991 237.127 253.165C237.492 253.339 237.773 253.65 237.909 254.031L237.963 254.214C238.004 254.401 238.084 254.577 238.198 254.731C238.312 254.885 238.457 255.012 238.624 255.106C238.792 255.197 238.977 255.253 239.168 255.269C239.359 255.285 239.551 255.262 239.732 255.2L247.301 252.519L247.436 252.943L247.598 253.357L240.029 256.038C239.848 256.102 239.683 256.204 239.545 256.337C239.407 256.47 239.298 256.631 239.227 256.809C239.156 256.986 239.124 257.177 239.132 257.368C239.14 257.559 239.189 257.746 239.275 257.917L239.348 258.094C239.429 258.286 239.471 258.493 239.47 258.701C239.469 258.91 239.425 259.116 239.341 259.307C239.257 259.498 239.135 259.67 238.982 259.812C238.829 259.954 238.649 260.063 238.452 260.132C238.256 260.202 238.047 260.231 237.839 260.217C237.631 260.202 237.428 260.146 237.242 260.05C237.057 259.955 236.893 259.822 236.761 259.661C236.629 259.5 236.531 259.313 236.474 259.112Z" fill="#eee"/>
</g>
</g>
<mask id="mask2_2_2" style="mask-type:luminance" maskUnits="userSpaceOnUse" x="262" y="120" width="46" height="46">
<path d="M262.682 164.064L305.925 165.178L307.04 121.935L263.796 120.821L262.682 164.064Z" fill="white"/>
</mask>
<g mask="url(#mask2_2_2)">
<g opacity="0.1">
<path d="M264.933 131.262C265.587 131.95 266.454 132.398 267.394 132.533C268.333 132.669 269.291 132.485 270.113 132.011L275.136 137.306C274.224 139.087 273.887 141.107 274.17 143.087C274.453 145.068 275.343 146.913 276.717 148.367C277.24 148.89 277.539 149.596 277.552 150.336C277.551 153.134 278.37 155.87 279.908 158.206C281.447 160.543 283.637 162.377 286.207 163.482C288.777 164.586 291.615 164.913 294.369 164.421C297.122 163.929 299.672 162.64 301.701 160.714C303.729 158.788 305.149 156.309 305.783 153.585C306.418 150.86 306.239 148.009 305.27 145.385C304.3 142.761 302.582 140.479 300.329 138.821C298.075 137.163 295.385 136.203 292.592 136.059C291.846 136.001 291.152 135.655 290.656 135.096C288.885 133.249 286.455 132.177 283.897 132.116C282.455 132.079 281.023 132.37 279.71 132.968L274.681 127.679C275.02 127.17 275.245 126.593 275.34 125.988C275.435 125.383 275.397 124.764 275.228 124.175C275.06 123.587 274.766 123.041 274.366 122.577C273.967 122.114 273.471 121.742 272.913 121.489C272.356 121.236 271.75 121.107 271.137 121.111C270.525 121.115 269.921 121.252 269.367 121.513C268.813 121.774 268.322 122.152 267.929 122.622C267.535 123.091 267.249 123.64 267.089 124.232C266.357 124.391 265.681 124.742 265.131 125.249C264.58 125.756 264.174 126.4 263.954 127.116C263.735 127.832 263.71 128.593 263.882 129.322C264.054 130.05 264.417 130.72 264.933 131.262ZM278.937 136.707C279.147 136.515 279.366 136.333 279.594 136.163C279.77 136.029 279.954 135.905 280.144 135.792C281.497 134.987 283.083 134.666 284.643 134.881C286.202 135.095 287.642 135.833 288.728 136.973C289.703 138.027 291.048 138.665 292.482 138.753C295.473 138.904 298.291 140.208 300.343 142.39C302.395 144.572 303.522 147.465 303.489 150.46C303.455 153.456 302.263 156.322 300.163 158.458C298.063 160.594 295.217 161.834 292.223 161.918L291.581 161.901C288.554 161.831 285.676 160.58 283.56 158.416C281.444 156.251 280.258 153.345 280.257 150.318C280.247 148.887 279.684 147.516 278.685 146.491C277.607 145.346 276.948 143.869 276.817 142.301C276.685 140.734 277.089 139.168 277.961 137.859C278.246 137.442 278.573 137.056 278.937 136.707ZM266.95 127.244C267.106 127.093 267.293 126.978 267.498 126.907C267.703 126.836 267.922 126.812 268.137 126.835C268.328 126.85 268.52 126.825 268.701 126.762C268.882 126.699 269.047 126.6 269.188 126.47C269.327 126.337 269.436 126.177 269.508 125.999C269.58 125.822 269.614 125.631 269.607 125.439C269.598 125.223 269.636 125.007 269.717 124.807C269.798 124.606 269.92 124.425 270.076 124.275C270.374 124.005 270.764 123.86 271.165 123.871C271.566 123.881 271.948 124.046 272.231 124.33C272.509 124.624 272.659 125.016 272.649 125.42C272.638 125.824 272.468 126.207 272.176 126.486L272.031 126.611C271.877 126.724 271.748 126.869 271.654 127.035C271.56 127.202 271.503 127.386 271.485 127.577C271.47 127.768 271.495 127.96 271.558 128.14C271.621 128.321 271.72 128.487 271.85 128.627L277.38 134.449L277.048 134.745L276.735 135.062L271.206 129.24C271.073 129.101 270.913 128.992 270.736 128.919C270.558 128.847 270.367 128.814 270.175 128.821C269.984 128.828 269.797 128.877 269.626 128.962C269.454 129.047 269.303 129.168 269.182 129.316L269.05 129.455C268.908 129.607 268.736 129.729 268.545 129.813C268.354 129.897 268.148 129.941 267.94 129.942C267.731 129.943 267.524 129.901 267.333 129.819C267.141 129.738 266.968 129.617 266.824 129.466C266.68 129.315 266.569 129.136 266.497 128.94C266.426 128.744 266.395 128.536 266.407 128.328C266.418 128.119 266.473 127.916 266.566 127.729C266.66 127.543 266.79 127.378 266.95 127.244Z" fill="#eee"/>
</g>
</g>
<mask id="mask3_2_2" style="mask-type:luminance" maskUnits="userSpaceOnUse" x="80" y="21" width="57" height="57">
<path d="M95.8531 77.8249L136.112 62.0004L120.288 21.7411L80.0286 37.5656L95.8531 77.8249Z" fill="white"/>
</mask>
<g mask="url(#mask3_2_2)">
<g opacity="0.1">
<path d="M85.1454 46.7389C86.0154 47.1174 86.9884 47.1921 87.9064 46.951C88.8244 46.71 89.6355 46.1672 90.2075 45.4099L96.8964 48.3292C96.7514 50.3248 97.2274 52.3163 98.2604 54.0301C99.2924 55.7444 100.83 57.0964 102.662 57.9004C103.348 58.1784 103.899 58.7114 104.199 59.3884C105.288 61.9644 107.109 64.1654 109.436 65.7174C111.763 67.2704 114.495 68.1064 117.292 68.1214C120.089 68.1374 122.83 67.3324 125.175 65.8064C127.519 64.2804 129.365 62.0994 130.483 59.5354C131.6 56.9704 131.942 54.1349 131.464 51.3785C130.987 48.6221 129.711 46.0662 127.796 44.0273C125.881 41.9884 123.409 40.556 120.688 39.9074C117.967 39.2588 115.115 39.4226 112.486 40.3783C111.776 40.6156 111.003 40.5682 110.328 40.2462C107.977 39.2351 105.322 39.1953 102.942 40.1354C101.599 40.6632 100.394 41.4895 99.4185 42.5518L92.7264 39.6413C92.8404 39.0397 92.8224 38.4204 92.6744 37.8263C92.5254 37.2322 92.2494 36.6776 91.8654 36.2008C91.4804 35.724 90.9975 35.3364 90.4485 35.065C89.8995 34.7936 89.2984 34.6447 88.6855 34.6288C88.0735 34.6129 87.4654 34.7302 86.9034 34.9728C86.3404 35.2153 85.8374 35.5772 85.4294 36.0334C85.0204 36.4895 84.7164 37.0291 84.5364 37.6146C84.3574 38.2002 84.3074 38.8177 84.3904 39.4244C83.7794 39.8562 83.2935 40.443 82.9835 41.1245C82.6745 41.8061 82.5514 42.5577 82.6284 43.3024C82.7054 44.047 82.9784 44.7578 83.4204 45.3617C83.8634 45.9656 84.4584 46.441 85.1454 46.7389ZM100.164 46.2966C100.281 46.0377 100.412 45.785 100.556 45.5396C100.667 45.3476 100.788 45.1619 100.918 44.9832C101.851 43.7151 103.186 42.8013 104.706 42.3912C106.226 41.9812 107.84 42.0994 109.284 42.7264C110.593 43.3171 112.08 43.3804 113.435 42.9031C116.249 41.8761 119.351 41.9785 122.091 43.1888C124.832 44.399 126.997 46.6232 128.134 49.3949C129.27 52.1666 129.289 55.2704 128.187 58.0564C127.085 60.8424 124.948 63.0924 122.223 64.3374L121.625 64.5714C118.811 65.6864 115.672 65.6564 112.88 64.4874C110.088 63.3194 107.863 61.1044 106.683 58.3174C106.116 57.0034 105.063 55.9594 103.744 55.4054C102.305 54.7704 101.123 53.667 100.391 52.2746C99.6594 50.8822 99.4204 49.2829 99.7134 47.7373C99.8134 47.2428 99.9645 46.76 100.164 46.2966ZM85.4364 42.2522C85.5214 42.0525 85.6495 41.8738 85.8105 41.7288C85.9715 41.5838 86.1634 41.476 86.3704 41.4131C86.5524 41.3526 86.7194 41.2551 86.8614 41.1268C87.0034 40.9984 87.1174 40.842 87.1954 40.6675C87.2724 40.4916 87.3104 40.3015 87.3074 40.1097C87.3044 39.918 87.2614 39.729 87.1804 39.5553C87.0884 39.3594 87.0384 39.1463 87.0354 38.93C87.0314 38.7137 87.0734 38.499 87.1584 38.3001C87.3274 37.9358 87.6305 37.6506 88.0045 37.5037C88.3775 37.3568 88.7934 37.3595 89.1654 37.5113C89.5354 37.6734 89.8265 37.9756 89.9745 38.3517C90.1225 38.7278 90.1144 39.1472 89.9544 39.518L89.8694 39.6894C89.7714 39.8538 89.7094 40.0371 89.6874 40.2272C89.6664 40.4172 89.6844 40.6097 89.7434 40.7919C89.8034 40.9735 89.9014 41.1406 90.0294 41.2827C90.1574 41.4247 90.3144 41.5387 90.4884 41.6173L97.8495 44.8243L97.6594 45.226L97.4944 45.6393L90.1334 42.4322C89.9574 42.3559 89.7674 42.3178 89.5754 42.3205C89.3844 42.3233 89.1954 42.3668 89.0214 42.4482C88.8484 42.5296 88.6944 42.6468 88.5704 42.7921C88.4454 42.9375 88.3534 43.1075 88.2994 43.2911L88.2324 43.4701C88.1604 43.6661 88.0504 43.8454 87.9074 43.997C87.7634 44.1486 87.5904 44.2692 87.3994 44.3515C87.2074 44.4338 87.0014 44.4759 86.7924 44.4754C86.5844 44.4748 86.3774 44.4315 86.1864 44.3482C85.9954 44.2649 85.8234 44.1434 85.6804 43.991C85.5384 43.8387 85.4285 43.6588 85.3585 43.4624C85.2885 43.266 85.2585 43.0573 85.2725 42.8492C85.2855 42.6411 85.3414 42.4379 85.4364 42.2522Z" fill="#eee"/>
</g>
</g>
<mask id="mask4_2_2" style="mask-type:luminance" maskUnits="userSpaceOnUse" x="19" y="209" width="55" height="55">
<path d="M60.9486 209.384L19.5344 221.877L32.0283 263.292L73.4424 250.798L60.9486 209.384Z" fill="white"/>
</mask>
<g mask="url(#mask4_2_2)">
<g opacity="0.1">
<path d="M60.4085 225.949C59.8505 225.578 59.1875 225.429 58.5345 225.511L58.3474 218.236C58.3364 217.804 58.1195 217.402 57.7625 217.157C57.4065 216.912 56.9524 216.854 56.5454 216.997L51.7354 218.698C51.1844 218.894 50.8215 219.421 50.8355 220.006L50.8705 221.429L48.1174 221.027C47.6874 220.965 47.2524 221.113 46.9504 221.426C46.6474 221.738 46.5144 222.178 46.5924 222.606L47.2824 226.422L42.9175 216.442C42.7445 216.046 42.3915 215.756 41.9685 215.664C41.8425 215.636 41.5804 215.579 41.2434 215.68C41.0524 215.738 40.8765 215.837 40.7285 215.971L36.9605 219.37C36.5295 219.76 36.3944 220.382 36.6274 220.915L37.9634 223.977L35.0414 226.614L32.9074 223.212C32.5984 222.721 32.0115 222.481 31.4475 222.616L26.4854 223.803C26.0654 223.903 25.7144 224.203 25.5494 224.606C25.3844 225.008 25.4235 225.466 25.6545 225.835L30.6905 233.89C30.0505 234.174 29.5394 234.689 29.2644 235.345C28.9434 236.108 28.9804 236.967 29.3644 237.7L40.0934 258.184C40.4594 258.884 41.1105 259.391 41.8785 259.575C42.3565 259.689 42.8514 259.672 43.3124 259.533C43.5964 259.447 43.8685 259.315 44.1165 259.138C49.2045 255.515 54.9494 253.782 61.1924 253.987C61.9884 254.013 62.7565 253.695 63.2975 253.113C63.8365 252.535 64.0985 251.753 64.0165 250.967L61.6274 227.967C61.5414 227.144 61.0975 226.408 60.4085 225.949ZM53.5624 220.92L55.6924 220.166L55.8495 226.276L54.9724 226.54L54.3005 222.859C54.2235 222.438 53.9535 222.088 53.5865 221.9L53.5624 220.92ZM49.5874 223.974L51.8155 224.299L52.3845 227.416C51.5465 227.879 50.9155 228.631 50.5935 229.534L49.5874 223.974ZM41.1765 219.208L48.2075 235.283C47.7035 235.669 47.1295 235.972 46.5005 236.162C46.4195 236.187 46.3385 236.204 46.2575 236.225L39.4945 220.726L41.1765 219.208ZM38.9844 226.697L43.0785 236.057C42.0085 235.666 41.0605 234.943 40.4095 233.951C40.1105 233.495 39.7365 233.116 39.3135 232.822L37.3034 228.214L38.9844 226.697ZM31.1325 225.471L35.4915 232.417L33.3604 233.06L28.9435 225.995L31.1325 225.471ZM58.9384 228.246L61.3195 251.27C61.3055 251.286 61.2894 251.285 61.2814 251.285C57.8564 251.172 54.5695 251.592 51.4395 252.536C48.3105 253.48 45.3384 254.949 42.5484 256.936C42.5404 256.941 42.5274 256.95 42.4884 256.93L31.7595 236.446C31.7545 236.436 31.7455 236.419 31.7575 236.392C31.7685 236.364 31.7875 236.359 31.7975 236.356L36.7254 234.869C37.2514 234.71 37.8234 234.937 38.1484 235.434C40.1054 238.418 43.8615 239.782 47.2805 238.751C50.7005 237.719 53.0755 234.506 53.0555 230.937C53.0515 230.343 53.4024 229.838 53.9284 229.679L58.8564 228.192C58.8664 228.189 58.8854 228.184 58.9104 228.2C58.9354 228.217 58.9375 228.236 58.9384 228.246Z" fill="#eee"/>
</g>
</g>
<mask id="mask5_2_2" style="mask-type:luminance" maskUnits="userSpaceOnUse" x="188" y="32" width="52" height="52">
<path d="M239.439 41.4214L197.155 32.2949L188.029 74.5789L230.313 83.7054L239.439 41.4214Z" fill="white"/>
</mask>
<g mask="url(#mask5_2_2)">
<g opacity="0.1">
<path d="M230.942 55.6544C230.634 55.0594 230.126 54.6074 229.516 54.3634L232.876 47.9081C233.076 47.5243 233.079 47.0678 232.886 46.6805C232.693 46.2933 232.324 46.0228 231.899 45.9506L226.867 45.1101C226.29 45.0137 225.716 45.2995 225.446 45.8182L224.787 47.0804L222.573 45.3954C222.227 45.1324 221.775 45.0511 221.359 45.1785C220.943 45.3057 220.614 45.6255 220.474 46.0375L219.23 49.7107L220.244 38.8656C220.285 38.4347 220.116 38.0105 219.791 37.7247C219.694 37.6394 219.493 37.4622 219.149 37.388C218.954 37.346 218.752 37.3476 218.558 37.3928L213.615 38.5423C213.049 38.6739 212.63 39.153 212.575 39.7319L212.261 43.0585L208.428 43.9499L208.208 39.9404C208.176 39.3613 207.778 38.867 207.219 38.7119L202.304 37.3475C201.887 37.2314 201.435 37.3234 201.095 37.5961C200.756 37.8684 200.569 38.2875 200.592 38.722L201.097 48.209C200.399 48.1476 199.703 48.3507 199.145 48.7909C198.495 49.3033 198.111 50.0722 198.092 50.9L197.557 74.0174C197.539 74.8074 197.863 75.5664 198.446 76.0994C198.809 76.4304 199.25 76.6544 199.721 76.7564C200.011 76.8194 200.313 76.8354 200.615 76.8004C206.822 76.0954 212.687 77.3614 218.05 80.5644C218.734 80.9724 219.56 81.0654 220.315 80.8194C221.066 80.5744 221.674 80.0174 221.983 79.2894L231.032 58.0094C231.356 57.2474 231.323 56.3894 230.942 55.6544ZM227.389 47.9383L229.618 48.3107L226.796 53.7317L225.901 53.5384L227.095 49.9924C227.232 49.5863 227.165 49.1499 226.936 48.8077L227.389 47.9383ZM222.432 48.6853L224.224 50.0488L223.212 53.0507C222.255 53.0501 221.339 53.4032 220.62 54.0369L222.432 48.6853ZM217.382 40.4421L215.748 57.9114C215.12 58.0044 214.471 57.9924 213.828 57.8534C213.746 57.8354 213.667 57.8124 213.586 57.7904L215.176 40.9552L217.382 40.4421ZM211.837 45.9327L210.886 56.1044C210.139 55.2444 209.659 54.1523 209.571 52.9696C209.53 52.4249 209.386 51.9123 209.159 51.451L209.631 46.4458L211.837 45.9327ZM205.561 41.0574L206.01 49.2453L203.835 48.7758L203.392 40.4553L205.561 41.0574ZM228.544 56.9514L219.477 78.2484C219.457 78.2554 219.443 78.2474 219.436 78.2424C216.494 76.4854 213.416 75.2604 210.22 74.5704C207.025 73.8814 203.714 73.7274 200.31 74.1144C200.301 74.1154 200.285 74.1164 200.26 74.0804L200.794 50.9624C200.795 50.9519 200.795 50.9325 200.819 50.914C200.842 50.8956 200.861 50.8997 200.871 50.9019L205.903 51.9881C206.44 52.1039 206.83 52.5795 206.875 53.1716C207.141 56.7304 209.766 59.7424 213.258 60.4964C216.749 61.2494 220.383 59.5884 222.094 56.4564C222.379 55.9354 222.93 55.6634 223.467 55.7794L228.499 56.8654C228.509 56.8674 228.528 56.8714 228.542 56.8974C228.556 56.9244 228.548 56.9424 228.544 56.9514Z" fill="#eee"/>
</g>
</g>
<path opacity="0.1" d="M325.028 196C327.238 196 329.028 194.21 329.028 192C329.028 189.791 327.238 188 325.028 188C322.819 188 321.028 189.791 321.028 192C321.028 194.21 322.819 196 325.028 196Z" stroke="#eee" stroke-width="2"/>
<path opacity="0.1" d="M101.442 10C103.652 10 105.442 8.20914 105.442 6C105.442 3.79086 103.652 2 101.442 2C99.2333 2 97.4424 3.79086 97.4424 6C97.4424 8.20914 99.2333 10 101.442 10Z" stroke="#eee" stroke-width="2"/>
<path opacity="0.1" d="M234.806 9C237.016 9 238.806 7.20914 238.806 5C238.806 2.79086 237.016 1 234.806 1C232.597 1 230.806 2.79086 230.806 5C230.806 7.20914 232.597 9 234.806 9Z" stroke="#eee" stroke-width="2"/>
<path opacity="0.1" d="M273.367 72.3184C275.577 72.3184 277.367 70.5276 277.367 68.3184C277.367 66.1093 275.577 64.3184 273.367 64.3184C271.158 64.3184 269.367 66.1093 269.367 68.3184C269.367 70.5276 271.158 72.3184 273.367 72.3184Z" stroke="#eee" stroke-width="2"/>
<path opacity="0.1" d="M50.4084 169.178C52.6176 169.178 54.4084 167.388 54.4084 165.178C54.4084 162.969 52.6176 161.178 50.4084 161.178C48.1993 161.178 46.4084 162.969 46.4084 165.178C46.4084 167.388 48.1993 169.178 50.4084 169.178Z" stroke="#eee" stroke-width="2"/>
<path opacity="0.1" d="M87.5284 96.4084C89.7376 96.4084 91.5284 94.6175 91.5284 92.4084C91.5284 90.1992 89.7376 88.4084 87.5284 88.4084C85.3193 88.4084 83.5284 90.1992 83.5284 92.4084C83.5284 94.6175 85.3193 96.4084 87.5284 96.4084Z" stroke="#eee" stroke-width="2"/>
<path opacity="0.1" d="M130.451 245.337C132.661 245.337 134.451 243.547 134.451 241.337C134.451 239.128 132.661 237.337 130.451 237.337C128.242 237.337 126.451 239.128 126.451 241.337C126.451 243.547 128.242 245.337 130.451 245.337Z" stroke="#eee" stroke-width="2"/>
<path d="M199.295 123.966H144.719V136.021H199.295V123.966Z" fill="#E4002B"/>
<path d="M172.028 101.742C163.757 101.742 157.028 108.472 157.028 116.742V121.742H143.695C142.773 121.742 142.028 122.488 142.028 123.408V168.408C142.028 172.085 145.018 175.075 148.695 175.075H195.362C199.038 175.075 202.028 172.085 202.028 168.408V123.408C202.028 122.488 201.283 121.742 200.362 121.742H187.028V116.742C187.028 108.472 180.3 101.742 172.028 101.742ZM160.362 116.742C160.91 101.3 183.15 101.305 183.695 116.742V121.742H160.362V116.742ZM195.362 171.742H148.695C146.857 171.742 145.362 170.247 145.362 168.408V138.408H198.695V168.408C198.695 170.247 197.2 171.742 195.362 171.742ZM198.695 125.075V135.075H145.362V125.075H157.028C157.032 125.412 156.975 126.868 157.113 127.16C154.122 128.688 155.282 133.467 158.695 133.408C160.532 133.408 162.028 131.913 162.028 130.075C162.028 128.812 161.315 127.725 160.277 127.16C160.313 127.023 160.362 126.89 160.362 126.742V125.075H183.695C183.723 125.408 183.627 126.877 183.78 127.16C180.777 128.69 181.958 133.467 185.362 133.408C187.198 133.408 188.695 131.913 188.695 130.075C188.695 128.812 187.982 127.725 186.943 127.16C186.98 127.023 187.028 126.89 187.028 126.742V125.075H198.695Z" fill="#eee"/>
<path d="M163.564 165.093C163.564 165.093 163.293 156.409 171.854 154.044C180.416 151.678 186.251 157.461 186.251 157.461" stroke="#999999" stroke-width="3.5" stroke-linecap="round"/>
<path d="M161.743 148.76C163.115 148.76 164.227 147.649 164.227 146.277C164.227 144.906 163.115 143.794 161.743 143.794C160.372 143.794 159.26 144.906 159.26 146.277C159.26 147.649 160.372 148.76 161.743 148.76Z" fill="#999999"/>
<path d="M182.019 148.405C183.391 148.405 184.503 147.294 184.503 145.922C184.503 144.551 183.391 143.439 182.019 143.439C180.648 143.439 179.536 144.551 179.536 145.922C179.536 147.294 180.648 148.405 182.019 148.405Z" fill="#999999"/>
</svg>